<mxfile host="Electron" agent="Mozilla/5.0 (X11; Linux x86_64) AppleWebKit/537.36 (KHTML, like Gecko) draw.io/26.0.16 Chrome/132.0.6834.196 Electron/34.2.0 Safari/537.36" version="26.0.16">
  <diagram name="Página-1" id="b9cEhURC8nKFVCnhv6Sc">
    <mxGraphModel dx="883" dy="578" grid="1" gridSize="10" guides="1" tooltips="1" connect="1" arrows="1" fold="1" page="1" pageScale="1" pageWidth="827" pageHeight="1169" math="0" shadow="0">
      <root>
        <mxCell id="0" />
        <mxCell id="1" parent="0" />
        <mxCell id="GWrWn9XJocTz9Qf3CFix-83" value="" style="group" vertex="1" connectable="0" parent="1">
          <mxGeometry x="148.75" y="150" width="580" height="360" as="geometry" />
        </mxCell>
        <mxCell id="GWrWn9XJocTz9Qf3CFix-84" value="" style="rounded=0;whiteSpace=wrap;html=1;fillColor=none;strokeColor=light-dark(#5d92cb, #2a7ed3);dashed=1;fontStyle=2;fontColor=#7EA6E0;fontSize=8;verticalAlign=top;align=left;dashPattern=1 4;strokeWidth=1;spacing=0;spacingTop=-2;spacingLeft=2;" vertex="1" parent="GWrWn9XJocTz9Qf3CFix-83">
          <mxGeometry width="580" height="360" as="geometry" />
        </mxCell>
        <mxCell id="GWrWn9XJocTz9Qf3CFix-85" value="TF BLUEPRINT: RG + MODULES" style="shape=image;verticalLabelPosition=middle;labelBackgroundColor=default;verticalAlign=middle;aspect=fixed;imageAspect=0;editableCssRules=.*;image=data:image/svg+xml,PHN2ZyB4bWxucz0iaHR0cDovL3d3dy53My5vcmcvMjAwMC9zdmciIGZpbGw9Im5vbmUiIHZpZXdCb3g9IjAuMDAzMjIyNzIzMDI1ODI4NiAwLjAwNjczNTc1Njk5MzI5Mzc2MiAxNS40MDc1NDk4NTgwOTMyNjIgMTUuOTg3NzI3MTY1MjIyMTY4IiBoZWlnaHQ9Ijc5OS4zODYzNTgyNjExMDg0IiB3aWR0aD0iNzcwLjM3NzQ5MjkwNDY2MzEiPjxwYXRoIGZpbGwtcnVsZT0iZXZlbm9kZCIgZmlsbD0iIzdFQTZFMCIgc3Ryb2tlPSJub25lIiBkPSJNMS40MjkgMC4wNDQgQyAwLjgwMyAwLjE3OCwwLjMwOCAwLjYyMCwwLjA4OSAxLjI0MCBMIDAuMDEzIDEuNDUzIDAuMDA2IDMuMjAwIEMgLTAuMDAzIDUuMTY4LC0wLjAwMSA1LjIwMCwwLjE4NyA1LjU4NyBDIDAuMzA1IDUuODMxLDAuNDU4IDYuMDI1LDAuNjYyIDYuMTkxIEMgMC43MzkgNi4yNTUsMS42NTcgNi43ODIsMi43MDIgNy4zNjIgTCA0LjYwMCA4LjQxOCA0LjYxNSAxMC43MjIgQyA0LjYyOSAxMi43OTEsNC42MzUgMTMuMDQ0LDQuNjc2IDEzLjIwMCBDIDQuNzc4IDEzLjU4Miw1LjAxOSAxMy45NTUsNS4zMDcgMTQuMTc3IEMgNS40NTIgMTQuMjg4LDcuODkyIDE1LjY1OCw4LjI1NCAxNS44MzEgQyA4LjUxOCAxNS45NTcsOC43ODQgMTYuMDA5LDkuMDgwIDE1Ljk5MSBDIDkuNTM3IDE1Ljk2NSw5Ljk0NiAxNS43ODMsMTAuMjY1IDE1LjQ2NSBDIDEwLjQ3MyAxNS4yNTcsMTAuNjE1IDE1LjAyNSwxMC43MTQgMTQuNzMzIEwgMTAuNzg2IDE0LjUyMCAxMC43OTUgMTIuNzQ3IEwgMTAuODA0IDEwLjk3MyAxMi42ODYgOS44MjcgQyAxMy43MjEgOS4xOTYsMTQuNjM1IDguNjI5LDE0LjcxNyA4LjU2NiBDIDE0LjkxOSA4LjQxMiwxNS4xMDEgOC4xODksMTUuMjI2IDcuOTQxIEMgMTUuNDE1IDcuNTY2LDE1LjQxNyA3LjU0MywxNS40MDggNS43ODcgTCAxNS40MDAgNC4yMjcgMTUuMzI1IDQuMDE0IEMgMTUuMDg3IDMuMzQyLDE0LjUyOCAyLjg4OSwxMy44MjUgMi44MDAgQyAxMy41ODIgMi43NjksMTMuMjYzIDIuODA1LDEzLjAzMSAyLjg4OSBDIDEyLjk0MCAyLjkyMiwxMi4yMzQgMy4zMDAsMTEuNDYzIDMuNzI4IEMgMTAuNjkyIDQuMTU2LDEwLjA0OSA0LjUwNywxMC4wMzQgNC41MDcgQyAxMC4wMjAgNC41MDcsOC4zNzEgMy41NTIsNi4zNzAgMi4zODQgQyA0LjM3MCAxLjIxNywyLjY2NCAwLjIyNywyLjU4MCAwLjE4NCBDIDIuMjUxIDAuMDE2LDEuODA4IC0wLjAzNywxLjQyOSAwLjA0NCBNMy4yNDAgMi4zNDQgTCA0LjYwMCAzLjEzOSA0LjYwNyA0Ljg5MyBDIDQuNjEzIDYuNTI0LDQuNjExIDYuNjQ1LDQuNTY5IDYuNjI5IEMgNC40MzQgNi41NzcsMS42MzIgNS4wMDIsMS41OTMgNC45NTYgQyAxLjU1MCA0LjkwNSwxLjU0NyA0Ljc4NiwxLjU0NyAzLjMwMiBMIDEuNTQ3IDEuNzAzIDEuNjI1IDEuNjI1IEMgMS42ODAgMS41NjksMS43MjggMS41NDcsMS43OTEgMS41NDggQyAxLjg1OCAxLjU0OSwyLjIxMyAxLjc0NCwzLjI0MCAyLjM0NCBNNy43NjkgNC45ODYgTCA5LjI1MyA1Ljg1MyA5LjI1MyA3LjU0MCBDIDkuMjUzIDguNDY4LDkuMjQ5IDkuMjI3LDkuMjQ0IDkuMjI3IEMgOS4yMzkgOS4yMjcsOC41NDYgOC44NDQsNy43MDQgOC4zNzcgTCA2LjE3MyA3LjUyNyA2LjE2NiA1Ljc4OSBMIDYuMTYwIDQuMDUxIDYuMjIzIDQuMDg2IEMgNi4yNTcgNC4xMDUsNi45NTMgNC41MTAsNy43NjkgNC45ODYgTTEzLjczNCA0LjM2MCBDIDEzLjc3NyA0LjM4MiwxMy44MjQgNC40MjQsMTMuODM5IDQuNDUyIEMgMTMuODU3IDQuNDg1LDEzLjg2NyA0Ljk4NSwxMy44NjcgNS44NzUgQyAxMy44NjcgNy4xNDQsMTMuODYzIDcuMjUyLDEzLjgyMCA3LjMwMiBDIDEzLjc5NCA3LjMzMiwxMy4xNDkgNy43MzcsMTIuMzg3IDguMjAyIEMgMTEuNjI0IDguNjY3LDEwLjk1NSA5LjA3NiwxMC45MDAgOS4xMTEgTCAxMC44MDAgOS4xNzQgMTAuODAxIDcuNTE0IEwgMTAuODAyIDUuODUzIDEyLjAwNSA1LjE4NyBDIDEzLjc3NyA0LjIwNSwxMy41OTggNC4yOTAsMTMuNzM0IDQuMzYwIE03LjcyNiAxMC4xNTMgTCA5LjI1MiAxMS4wMDAgOS4yNTMgMTIuNjIxIEMgOS4yNTMgMTQuMDMzLDkuMjQ4IDE0LjI1Myw5LjIxMiAxNC4zMjIgQyA5LjE3MCAxNC40MDMsOS4wODIgMTQuNDUzLDguOTgxIDE0LjQ1MyBDIDguOTIxIDE0LjQ1Myw2LjM0OSAxMy4wMzYsNi4yNDEgMTIuOTQyIEwgNi4xNzMgMTIuODg1IDYuMTY2IDExLjA5NiBDIDYuMTYyIDEwLjExMiw2LjE2OCA5LjMwNyw2LjE3OSA5LjMwNyBDIDYuMTkwIDkuMzA3LDYuODg2IDkuNjg4LDcuNzI2IDEwLjE1MyIvPjwvc3ZnPg==;rounded=0;dashed=1;dashPattern=1 4;strokeColor=#7EA6E0;strokeWidth=1;align=left;spacingLeft=2;spacingTop=-2;spacing=0;fontFamily=Helvetica;fontSize=8;fontColor=#7EA6E0;fontStyle=2;fillColor=none;labelPosition=right;" vertex="1" parent="GWrWn9XJocTz9Qf3CFix-83">
          <mxGeometry x="0.8787878787878789" y="1" width="5.36842105263158" height="5.56842105263158" as="geometry" />
        </mxCell>
        <mxCell id="GWrWn9XJocTz9Qf3CFix-5" value="" style="rounded=0;whiteSpace=wrap;html=1;fillColor=none;strokeColor=light-dark(#5d92cb, #2a7ed3);" vertex="1" parent="1">
          <mxGeometry x="160" y="160" width="560" height="340" as="geometry" />
        </mxCell>
        <mxCell id="GWrWn9XJocTz9Qf3CFix-4" value=" rg-dev-weu-cp2" style="shape=image;verticalLabelPosition=middle;labelBackgroundColor=default;verticalAlign=middle;aspect=fixed;imageAspect=0;editableCssRules=.*;image=data:image/svg+xml,PHN2ZyB4bWxuczp4bGluaz0iaHR0cDovL3d3dy53My5vcmcvMTk5OS94bGluayIgeG1sbnM9Imh0dHA6Ly93d3cudzMub3JnLzIwMDAvc3ZnIiBzdHJva2UtbGluZWpvaW49InJvdW5kIiBzdHJva2UtbGluZWNhcD0icm91bmQiIHN0cm9rZT0iIzAwMCIgZmlsbC1ydWxlPSJldmVub2RkIiBmaWxsPSIjZmZmIiB2aWV3Qm94PSIwLjUgMC41MDA0Mzg4Njg5OTk0ODEyIDEwMC4wMDA5OTk0NTA2ODM2IDc5Ljk5ODYxOTA3OTU4OTg0IiB3aWR0aD0iMTAwLjAwMDk5OTQ1MDY4MzYiIGhlaWdodD0iNzkuOTk4NjE5MDc5NTg5ODQiPjx1c2UgeT0iLjUiIHg9Ii41IiB4bGluazpocmVmPSIjQSIvPjxzeW1ib2wgb3ZlcmZsb3c9InZpc2libGUiIGlkPSJBIj48ZyBzdHJva2U9Im5vbmUiIGZpbGw9IiMwMDc4ZDciPjxwYXRoIGQ9Ik01MCAzNS4zMjdjLS4yMDEgMC0uMjAxIDAtLjQwMi0uMTk4TDIwLjA4MSAxOC4zMzFjLS4yMDEtLjE5OC0uNDAyLS4zOTUtLjQwMi0uNzkxcy4yMDEtLjU5My40MDItLjc5TDQ5LjM5OC4xNDhhLjYyLjYyIDAgMCAxIC44MDMgMGwyOS41MTggMTYuNzk5Yy4yMDEuMTk4LjQwMi4zOTUuNDAyLjc5MXMtLjIwMS41OTMtLjQwMi43OUw1MC40MDIgMzUuMTI5YzAgLjE5OC0uMjAxLjE5OC0uNDAyLjE5OG0tNC4yMTcgNDAuOTExYy0uMjAxIDAtLjQwMiAwLS40MDItLjE5OEwxNS44NjQgNTkuMjQxYy0uMjAxLS4xOTgtLjQwMi0uMzk1LS40MDItLjc5MVYyNC44NTNjMC0uMzk1LjIwMS0uNTkzLjQwMi0uNzkxYS42Mi42MiAwIDAgMSAuODAzIDBsMjkuNTE4IDE2Ljc5OWMuMjAxLjE5OC40MDEuMzk1LjQwMS43OTFWNzUuMjVjMCAuMzk1LS4yMDEuNTkzLS40MDEuNzkxIDAgLjE5OC0uMjAxLjE5OC0uNDAyLjE5OCIvPjx1c2UgeGxpbms6aHJlZj0iI0MiLz48dXNlIHhsaW5rOmhyZWY9IiNDIi8+PHBhdGggZD0iTTE5LjA3NiA3OS45OTNjLS40MDIgMC0xLjAwNC0uMTk4LTEuNDA2LS4zOTVMNC4wMTYgNzEuNjkyQzEuNjA2IDcwLjMwOSAwIDY3LjU0MiAwIDY0Ljk3M1YxNS4xNjljMC0yLjU2OSAxLjYwNi01LjUzNCA0LjAxNi02LjcyTDE3LjY3MS41NDRjMS40MDYtLjc5IDMuMjEzLS4zOTUgNC4wMTYuOTg4cy40MDIgMy4xNjItMS4wMDQgMy45NTNMNy4wMjggMTMuMzljLS40MDIuMTk4LTEuMDA0IDEuMTg2LTEuMDA0IDEuNzc5djQ5LjgwNGMwIC41OTMuNjAyIDEuNTgxIDEuMDA0IDEuNzc5bDEzLjY1NSA3LjkwNWMxLjQwNi43OSAxLjgwNyAyLjU2OSAxLjAwNCAzLjk1My0uODAzLjc5LTEuNjA2IDEuMzgzLTIuNjEgMS4zODN6TTgwLjkyNC4xNDhjLjQwMiAwIDEuMDA0LjE5OCAxLjQwNi4zOTVsMTMuNjU1IDcuOTA1YzIuNDEgMS4zODMgNC4wMTYgNC4xNSA0LjAxNiA2LjcydjQ5LjgwNGMwIDIuNTY5LTEuNjA2IDUuNTM0LTQuMDE2IDYuNzE5TDgyLjMzIDc5LjU5NmMtMS40MDYuNzkxLTMuMjEzLjM5NS00LjAxNi0uOTg4cy0uNDAyLTMuMTYyIDEuMDA0LTMuOTUzbDEzLjY1NC03LjkwNWMuNDAyLS4xOTggMS4wMDQtMS4xODYgMS4wMDQtMS43NzlWMTUuMTY4YzAtLjU5My0uNjAyLTEuNTgxLTEuMDA0LTEuNzc5TDc5LjMxNyA1LjQ4NGMtMS40MDYtLjc5LTEuODA3LTIuNTY5LTEuMDA0LTMuOTUzLjYwMi0uNzkgMS42MDYtMS4zODMgMi42MS0xLjM4M3oiLz48L2c+PC9zeW1ib2w+PGRlZnM+PHBhdGggZD0iTTU0LjIxNyA3Ni4yMzdjLS4yMDEgMC0uNDAyIDAtLjQwMi0uMTk4LS4yMDEtLjE5OC0uNDAxLS4zOTUtLjQwMS0uNzkxVjQyLjA0N2MwLS4zOTUuMjAxLS41OTMuNDAxLS43OWwyOS41MTgtMTYuNzk5YS42Mi42MiAwIDAgMSAuODAzIDBjLjIwMS4xOTguNDAyLjM5NS40MDIuNzkxdjMzLjRjMCAuMzk1LS4yMDEuNTkzLS40MDIuNzlMNTQuNjE5IDc2LjIzN2gtLjQwMiIgaWQ9IkMiLz48L2RlZnM+PC9zdmc+;labelPosition=right;align=left;" vertex="1" parent="1">
          <mxGeometry x="164" y="164" width="21.88" height="17.5" as="geometry" />
        </mxCell>
        <mxCell id="GWrWn9XJocTz9Qf3CFix-17" value="" style="group" vertex="1" connectable="0" parent="1">
          <mxGeometry x="170" y="300" width="200" height="190" as="geometry" />
        </mxCell>
        <mxCell id="GWrWn9XJocTz9Qf3CFix-6" value="" style="rounded=0;whiteSpace=wrap;html=1;fillColor=none;strokeColor=light-dark(#5d92cb, #2a7ed3);dashed=1;fontStyle=2;fontColor=#7EA6E0;fontSize=8;verticalAlign=top;align=left;dashPattern=1 4;strokeWidth=1;spacing=0;spacingTop=-2;spacingLeft=2;" vertex="1" parent="GWrWn9XJocTz9Qf3CFix-17">
          <mxGeometry width="200" height="190" as="geometry" />
        </mxCell>
        <mxCell id="GWrWn9XJocTz9Qf3CFix-16" value="TF MODULE: VM" style="shape=image;verticalLabelPosition=middle;labelBackgroundColor=default;verticalAlign=middle;aspect=fixed;imageAspect=0;editableCssRules=.*;image=data:image/svg+xml,PHN2ZyB4bWxucz0iaHR0cDovL3d3dy53My5vcmcvMjAwMC9zdmciIGZpbGw9Im5vbmUiIHZpZXdCb3g9IjAuMDAzMjIyNzIzMDI1ODI4NiAwLjAwNjczNTc1Njk5MzI5Mzc2MiAxNS40MDc1NDk4NTgwOTMyNjIgMTUuOTg3NzI3MTY1MjIyMTY4IiBoZWlnaHQ9Ijc5OS4zODYzNTgyNjExMDg0IiB3aWR0aD0iNzcwLjM3NzQ5MjkwNDY2MzEiPjxwYXRoIGZpbGwtcnVsZT0iZXZlbm9kZCIgZmlsbD0iIzdFQTZFMCIgc3Ryb2tlPSJub25lIiBkPSJNMS40MjkgMC4wNDQgQyAwLjgwMyAwLjE3OCwwLjMwOCAwLjYyMCwwLjA4OSAxLjI0MCBMIDAuMDEzIDEuNDUzIDAuMDA2IDMuMjAwIEMgLTAuMDAzIDUuMTY4LC0wLjAwMSA1LjIwMCwwLjE4NyA1LjU4NyBDIDAuMzA1IDUuODMxLDAuNDU4IDYuMDI1LDAuNjYyIDYuMTkxIEMgMC43MzkgNi4yNTUsMS42NTcgNi43ODIsMi43MDIgNy4zNjIgTCA0LjYwMCA4LjQxOCA0LjYxNSAxMC43MjIgQyA0LjYyOSAxMi43OTEsNC42MzUgMTMuMDQ0LDQuNjc2IDEzLjIwMCBDIDQuNzc4IDEzLjU4Miw1LjAxOSAxMy45NTUsNS4zMDcgMTQuMTc3IEMgNS40NTIgMTQuMjg4LDcuODkyIDE1LjY1OCw4LjI1NCAxNS44MzEgQyA4LjUxOCAxNS45NTcsOC43ODQgMTYuMDA5LDkuMDgwIDE1Ljk5MSBDIDkuNTM3IDE1Ljk2NSw5Ljk0NiAxNS43ODMsMTAuMjY1IDE1LjQ2NSBDIDEwLjQ3MyAxNS4yNTcsMTAuNjE1IDE1LjAyNSwxMC43MTQgMTQuNzMzIEwgMTAuNzg2IDE0LjUyMCAxMC43OTUgMTIuNzQ3IEwgMTAuODA0IDEwLjk3MyAxMi42ODYgOS44MjcgQyAxMy43MjEgOS4xOTYsMTQuNjM1IDguNjI5LDE0LjcxNyA4LjU2NiBDIDE0LjkxOSA4LjQxMiwxNS4xMDEgOC4xODksMTUuMjI2IDcuOTQxIEMgMTUuNDE1IDcuNTY2LDE1LjQxNyA3LjU0MywxNS40MDggNS43ODcgTCAxNS40MDAgNC4yMjcgMTUuMzI1IDQuMDE0IEMgMTUuMDg3IDMuMzQyLDE0LjUyOCAyLjg4OSwxMy44MjUgMi44MDAgQyAxMy41ODIgMi43NjksMTMuMjYzIDIuODA1LDEzLjAzMSAyLjg4OSBDIDEyLjk0MCAyLjkyMiwxMi4yMzQgMy4zMDAsMTEuNDYzIDMuNzI4IEMgMTAuNjkyIDQuMTU2LDEwLjA0OSA0LjUwNywxMC4wMzQgNC41MDcgQyAxMC4wMjAgNC41MDcsOC4zNzEgMy41NTIsNi4zNzAgMi4zODQgQyA0LjM3MCAxLjIxNywyLjY2NCAwLjIyNywyLjU4MCAwLjE4NCBDIDIuMjUxIDAuMDE2LDEuODA4IC0wLjAzNywxLjQyOSAwLjA0NCBNMy4yNDAgMi4zNDQgTCA0LjYwMCAzLjEzOSA0LjYwNyA0Ljg5MyBDIDQuNjEzIDYuNTI0LDQuNjExIDYuNjQ1LDQuNTY5IDYuNjI5IEMgNC40MzQgNi41NzcsMS42MzIgNS4wMDIsMS41OTMgNC45NTYgQyAxLjU1MCA0LjkwNSwxLjU0NyA0Ljc4NiwxLjU0NyAzLjMwMiBMIDEuNTQ3IDEuNzAzIDEuNjI1IDEuNjI1IEMgMS42ODAgMS41NjksMS43MjggMS41NDcsMS43OTEgMS41NDggQyAxLjg1OCAxLjU0OSwyLjIxMyAxLjc0NCwzLjI0MCAyLjM0NCBNNy43NjkgNC45ODYgTCA5LjI1MyA1Ljg1MyA5LjI1MyA3LjU0MCBDIDkuMjUzIDguNDY4LDkuMjQ5IDkuMjI3LDkuMjQ0IDkuMjI3IEMgOS4yMzkgOS4yMjcsOC41NDYgOC44NDQsNy43MDQgOC4zNzcgTCA2LjE3MyA3LjUyNyA2LjE2NiA1Ljc4OSBMIDYuMTYwIDQuMDUxIDYuMjIzIDQuMDg2IEMgNi4yNTcgNC4xMDUsNi45NTMgNC41MTAsNy43NjkgNC45ODYgTTEzLjczNCA0LjM2MCBDIDEzLjc3NyA0LjM4MiwxMy44MjQgNC40MjQsMTMuODM5IDQuNDUyIEMgMTMuODU3IDQuNDg1LDEzLjg2NyA0Ljk4NSwxMy44NjcgNS44NzUgQyAxMy44NjcgNy4xNDQsMTMuODYzIDcuMjUyLDEzLjgyMCA3LjMwMiBDIDEzLjc5NCA3LjMzMiwxMy4xNDkgNy43MzcsMTIuMzg3IDguMjAyIEMgMTEuNjI0IDguNjY3LDEwLjk1NSA5LjA3NiwxMC45MDAgOS4xMTEgTCAxMC44MDAgOS4xNzQgMTAuODAxIDcuNTE0IEwgMTAuODAyIDUuODUzIDEyLjAwNSA1LjE4NyBDIDEzLjc3NyA0LjIwNSwxMy41OTggNC4yOTAsMTMuNzM0IDQuMzYwIE03LjcyNiAxMC4xNTMgTCA5LjI1MiAxMS4wMDAgOS4yNTMgMTIuNjIxIEMgOS4yNTMgMTQuMDMzLDkuMjQ4IDE0LjI1Myw5LjIxMiAxNC4zMjIgQyA5LjE3MCAxNC40MDMsOS4wODIgMTQuNDUzLDguOTgxIDE0LjQ1MyBDIDguOTIxIDE0LjQ1Myw2LjM0OSAxMy4wMzYsNi4yNDEgMTIuOTQyIEwgNi4xNzMgMTIuODg1IDYuMTY2IDExLjA5NiBDIDYuMTYyIDEwLjExMiw2LjE2OCA5LjMwNyw2LjE3OSA5LjMwNyBDIDYuMTkwIDkuMzA3LDYuODg2IDkuNjg4LDcuNzI2IDEwLjE1MyIvPjwvc3ZnPg==;rounded=0;dashed=1;dashPattern=1 4;strokeColor=#7EA6E0;strokeWidth=1;align=left;spacingLeft=2;spacingTop=-2;spacing=0;fontFamily=Helvetica;fontSize=8;fontColor=#7EA6E0;fontStyle=2;fillColor=none;labelPosition=right;" vertex="1" parent="GWrWn9XJocTz9Qf3CFix-17">
          <mxGeometry x="0.8787878787878789" y="1" width="5.36842105263158" height="5.56842105263158" as="geometry" />
        </mxCell>
        <mxCell id="GWrWn9XJocTz9Qf3CFix-46" value="" style="group" vertex="1" connectable="0" parent="GWrWn9XJocTz9Qf3CFix-17">
          <mxGeometry x="16.616666666666674" y="126.66666666666667" width="166.76" height="42.22222222222222" as="geometry" />
        </mxCell>
        <mxCell id="GWrWn9XJocTz9Qf3CFix-47" value="&lt;b&gt;Virtual machine&lt;/b&gt;&lt;div style=&quot;padding-left: 0px; padding-right: 0px;&quot;&gt;vm-dev-weu-cp2-docs&lt;/div&gt;" style="rounded=0;whiteSpace=wrap;html=1;verticalAlign=top;labelPosition=center;verticalLabelPosition=middle;align=left;fillColor=#dae8fc;strokeColor=#6c8ebf;spacingRight=4;spacingLeft=36;" vertex="1" parent="GWrWn9XJocTz9Qf3CFix-46">
          <mxGeometry width="166.76" height="42.22222222222222" as="geometry" />
        </mxCell>
        <mxCell id="GWrWn9XJocTz9Qf3CFix-48" value="" style="shape=image;verticalLabelPosition=bottom;labelBackgroundColor=default;verticalAlign=top;aspect=fixed;imageAspect=0;editableCssRules=.*;image=data:image/svg+xml,PHN2ZyB4bWxuczp4bGluaz0iaHR0cDovL3d3dy53My5vcmcvMTk5OS94bGluayIgeG1sbnM9Imh0dHA6Ly93d3cudzMub3JnLzIwMDAvc3ZnIiBzdHJva2UtbGluZWpvaW49InJvdW5kIiBzdHJva2UtbGluZWNhcD0icm91bmQiIHN0cm9rZT0iIzAwMCIgZmlsbC1ydWxlPSJldmVub2RkIiBmaWxsPSIjZmZmIiB2aWV3Qm94PSIwLjUgMC41IDg0Ljk5OTk5MjM3MDYwNTQ3IDgwIiB3aWR0aD0iODQuOTk5OTkyMzcwNjA1NDciIGhlaWdodD0iODAiPjx1c2UgeT0iLjUiIHg9Ii41IiB4bGluazpocmVmPSIjQSIvPjxzeW1ib2wgb3ZlcmZsb3c9InZpc2libGUiIGlkPSJBIj48cGF0aCBzdHJva2U9Im5vbmUiIGZpbGw9IiMwMDc4ZDciIGQ9Ik03OS43NzMgMEg0LjU0NkMyLjA0NSAwIDAgMi4zMTkgMCA0Ljg3djUzLjU2NWMwIDIuNTUgMi4wNDUgNC44NyA0LjU0NiA0Ljg3aDI1LjY4MmMyLjcyNyA5Ljk3MS0uOTA5IDExLjM2Mi0xNy4yNzMgMTEuMzYyVjgwaDIwLjY4MiAxNS4yMjcgMTkuNTQ1di01LjMzNGMtMTYuMzY0IDAtMTcuOTU1LTEuMzkxLTE1LjIyNy0xMS4zNjJoMjYuNTkxYzIuNSAwIDUuMjI3LTIuMzE5IDUuMjI3LTQuODdWNC44N0M4NSAyLjMxOSA4Mi4yNzMgMCA3OS43NzMgMHptLTEuMzY0IDYuNDkzVjU2LjU4SDYuMzY0VjYuNDkzaDcyLjA0NSAwem0tMjMuNjg1IDE1LjgxbC0xMy4xODItNy42NTItMTMuMTgyIDcuNjUydi4yMzFsMTMuMTgyIDcuNjUyIDEzLjE4Mi03Ljg4NGgwek00Mi45NiAzMi4zOTV2MTUuMzA0bDEzLjE4Mi03LjY1MlYyNC43NDNMNDIuOTYgMzIuMzk1em0tMi43MSAwbC0xMy4xODItNy42NTJ2MTUuMzA0bDEzLjE4MiA3LjY1MlYzMi4zOTV6Ii8+PC9zeW1ib2w+PC9zdmc+;" vertex="1" parent="GWrWn9XJocTz9Qf3CFix-46">
          <mxGeometry x="9.80941176470588" y="10.555555555555555" width="19.833333333333336" height="18.666666666666668" as="geometry" />
        </mxCell>
        <mxCell id="GWrWn9XJocTz9Qf3CFix-62" style="edgeStyle=orthogonalEdgeStyle;rounded=1;orthogonalLoop=1;jettySize=auto;html=1;entryX=0.5;entryY=0;entryDx=0;entryDy=0;strokeColor=#7EA6E0;align=center;verticalAlign=middle;fontFamily=Helvetica;fontSize=11;fontColor=default;labelBackgroundColor=default;endArrow=none;endFill=1;curved=0;startArrow=blockThin;startFill=1;" edge="1" parent="GWrWn9XJocTz9Qf3CFix-17" source="GWrWn9XJocTz9Qf3CFix-53" target="GWrWn9XJocTz9Qf3CFix-58">
          <mxGeometry relative="1" as="geometry" />
        </mxCell>
        <mxCell id="GWrWn9XJocTz9Qf3CFix-53" value="Subnet /24" style="shape=image;verticalLabelPosition=bottom;labelBackgroundColor=default;verticalAlign=top;aspect=fixed;imageAspect=0;editableCssRules=.*;image=data:image/svg+xml,PHN2ZyB4bWxuczp4bGluaz0iaHR0cDovL3d3dy53My5vcmcvMTk5OS94bGluayIgeG1sbnM9Imh0dHA6Ly93d3cudzMub3JnLzIwMDAvc3ZnIiBzdHJva2UtbGluZWpvaW49InJvdW5kIiBzdHJva2UtbGluZWNhcD0icm91bmQiIHN0cm9rZT0iIzAwMCIgZmlsbC1ydWxlPSJldmVub2RkIiBmaWxsPSIjZmZmIiB2aWV3Qm94PSIwLjUgMC41IDE1MCA4MCIgd2lkdGg9IjE1MCIgaGVpZ2h0PSI4MCI+PHVzZSB5PSIuNSIgeD0iLjUiIHhsaW5rOmhyZWY9IiNBIi8+PHN5bWJvbCBvdmVyZmxvdz0idmlzaWJsZSIgaWQ9IkEiPjxwYXRoIHN0cm9rZT0ibm9uZSIgZmlsbD0iIzAwNzhkNyIgZD0iTTE1MCA0MGwtOS4wOTEgOC45NzJMMTA5LjQ3IDgwbC01LjMwMy01LjIzNEwxMzkuNzczIDQwIDEwNC4xNjcgNS4yMzQgMTA5LjQ3IDBsMzEuNDM5IDMxLjAyOHpNMCA0MGw5LjQ3IDguOTcyTDQwLjUzIDgwbDUuMzAzLTUuMjM0TDEwLjIyNyA0MCA0NS44MzMgNS4yMzQgNDAuNTMgMCA5LjQ3IDMxLjAyOHptNTYuODE4IDBjMC00Ljg2LTQuMTY3LTguOTcyLTkuMDkxLTguOTcyLTUuMzAzIDAtOS4wOTEgNC4xMTItOS4wOTEgOC45NzJzNC4xNjcgOC45NzIgOS4wOTEgOC45NzJjNS4zMDMgMCA5LjA5MS00LjExMiA5LjA5MS04Ljk3MnpNNzUgNDguOTcyYzQuOTI0IDAgOS4wOTEtNC4xMTIgOS4wOTEtOC45NzJTNzkuOTI0IDMxLjAyOCA3NSAzMS4wMjggNjUuOTA5IDM1LjE0IDY1LjkwOSA0MHM0LjE2NyA4Ljk3MiA5LjA5MSA4Ljk3MnptMjcuMjczIDBjNC45MjQgMCA5LjA5MS00LjExMiA5LjA5MS04Ljk3MnMtNC4xNjctOC45NzItOS4wOTEtOC45NzJjLTUuMzAzIDAtOS4wOTEgNC4xMTItOS4wOTEgOC45NzJzMy43ODggOC45NzIgOS4wOTEgOC45NzJ6Ii8+PC9zeW1ib2w+PC9zdmc+;fillStyle=auto;strokeColor=default;align=center;spacingLeft=0;fontFamily=Helvetica;fontSize=10;fontColor=#808080;fontStyle=2;fillColor=default;labelPosition=center;spacing=0;" vertex="1" parent="GWrWn9XJocTz9Qf3CFix-17">
          <mxGeometry x="87.2" y="60" width="25" height="13.33" as="geometry" />
        </mxCell>
        <mxCell id="GWrWn9XJocTz9Qf3CFix-61" style="edgeStyle=orthogonalEdgeStyle;rounded=1;orthogonalLoop=1;jettySize=auto;html=1;entryX=0.5;entryY=0;entryDx=0;entryDy=0;strokeColor=#7EA6E0;align=center;verticalAlign=middle;fontFamily=Helvetica;fontSize=11;fontColor=default;labelBackgroundColor=default;endArrow=none;endFill=1;curved=0;startArrow=blockThin;startFill=1;" edge="1" parent="GWrWn9XJocTz9Qf3CFix-17" source="GWrWn9XJocTz9Qf3CFix-50" target="GWrWn9XJocTz9Qf3CFix-53">
          <mxGeometry relative="1" as="geometry" />
        </mxCell>
        <mxCell id="GWrWn9XJocTz9Qf3CFix-50" value="Virtual Network /16" style="shape=image;verticalLabelPosition=bottom;labelBackgroundColor=default;verticalAlign=top;aspect=fixed;imageAspect=0;editableCssRules=.*;image=data:image/svg+xml,PHN2ZyB4bWxuczp4bGluaz0iaHR0cDovL3d3dy53My5vcmcvMTk5OS94bGluayIgeG1sbnM9Imh0dHA6Ly93d3cudzMub3JnLzIwMDAvc3ZnIiBzdHJva2UtbGluZWpvaW49InJvdW5kIiBzdHJva2UtbGluZWNhcD0icm91bmQiIHN0cm9rZT0iIzAwMCIgZmlsbC1ydWxlPSJldmVub2RkIiBmaWxsPSIjZmZmIiB2aWV3Qm94PSIwLjQ5OTU5NTU4MjQ4NTE5OSAwLjUwMDI0OTk4MTg4MDE4OCAxMzkuOTk5ODAxNjM1NzQyMiA4MC4wMDAxMTQ0NDA5MTc5NyIgd2lkdGg9IjEzOS45OTk4MDE2MzU3NDIyIiBoZWlnaHQ9IjgwLjAwMDExNDQ0MDkxNzk3Ij48dXNlIHk9Ii41IiB4PSIuNSIgeGxpbms6aHJlZj0iI0EiLz48c3ltYm9sIG92ZXJmbG93PSJ2aXNpYmxlIiBpZD0iQSI+PHBhdGggc3Ryb2tlPSJub25lIiBmaWxsPSIjMzk5OWM2IiBkPSJNMTM5LjA1MyA0Mi4wMDFjMS4zOTgtMS4zOTMgMS4xMTgtMy42MjIgMC01LjAxNWwtNi43MDktNi42ODdMMTAyLjE1IDEuMDQ1Yy0xLjM5OC0xLjM5My0zLjM1NS0xLjM5My00Ljc1MyAwaDBjLTEuMzk4IDEuMzkzLTEuNjc4IDMuNjIyIDAgNS4wMTVsMzEuNTkxIDMwLjkyNmEzLjUyIDMuNTIgMCAwIDEgMCA1LjAxNWwtMzIuMTUgMzIuMDQxYTMuNTIgMy41MiAwIDAgMCAwIDUuMDE1aDBjMS4zOTggMS4zOTMgMy42MzUgMS4xMTUgNC43NTMgMGwyOS45MTQtMjkuNTMzLjI4LS4yNzkgNy4yNjktNy4yNDR6bS0xMzguMTA3IDBjLTEuMzk4LTEuMzkzLTEuMTE4LTMuNjIyIDAtNS4wMTVsNi43MS02LjY4N0wzNy44NSAxLjA0NWMxLjM5OC0xLjM5MyAzLjM1NS0xLjM5MyA0Ljc1MyAwaDBjMS4zOTggMS4zOTMgMS42NzggMy42MjIgMCA1LjAxNUwxMS41NyAzNi45ODZhMy41MiAzLjUyIDAgMCAwIDAgNS4wMTVsMzEuNTkyIDMyLjA0MWEzLjUyIDMuNTIgMCAwIDEgMCA1LjAxNWgwYy0xLjM5OCAxLjM5My0zLjYzNSAxLjExNS00Ljc1MyAwTDcuOTM2IDQ5LjgwMmwtLjI4LS4yNzlMLjk0NyA0MnoiLz48cGF0aCBmaWxsPSIjN2ZiYTAwIiBzdHJva2U9Im5vbmUiIGQ9Ik01MC45OSAzOS40OTNjMCA1LjI5My00LjQ3MyA5LjE5NC05LjIyNiA5LjE5NHMtOS43ODUtNC40NTgtOS43ODUtOS4xOTQgMy45MTQtOS4xOTQgOS43ODUtOS4xOTRjNS41OTEgMCA5LjIyNiA0LjQ1OCA5LjIyNiA5LjE5NHptMjguMjM2IDBjMCA1LjI5My00LjQ3MyA5LjE5NC05LjIyNiA5LjE5NHMtOS43ODUtNC40NTgtOS43ODUtOS4xOTQgNC40NzMtOS4xOTQgOS43ODUtOS4xOTQgOS4yMjYgNC40NTggOS4yMjYgOS4xOTR6bTEwLjA2NCAwYzAtNS4wOTQgNC4xMTUtOS4xOTQgOS4yMjYtOS4xOTRzOS4yMjYgNC4xMDEgOS4yMjYgOS4xOTQtNC4xMTUgOS4xOTQtOS4yMjYgOS4xOTQtOS4yMjYtNC4xMDEtOS4yMjYtOS4xOTR6Ii8+PC9zeW1ib2w+PC9zdmc+;labelPosition=center;align=center;fontStyle=2;spacingLeft=0;fontColor=#808080;fontSize=9;spacing=0;" vertex="1" parent="GWrWn9XJocTz9Qf3CFix-17">
          <mxGeometry x="87.75" y="16" width="24.5" height="14" as="geometry" />
        </mxCell>
        <mxCell id="GWrWn9XJocTz9Qf3CFix-58" value="NIC" style="shape=image;verticalLabelPosition=middle;labelBackgroundColor=default;verticalAlign=middle;aspect=fixed;imageAspect=0;editableCssRules=.*;image=data:image/svg+xml,PHN2ZyB4bWxucz0iaHR0cDovL3d3dy53My5vcmcvMjAwMC9zdmciIHk9IjBweCIgeD0iMHB4IiB2aWV3Qm94PSIxLjI1IDMuMjUgMjEuNSAxNy41IiBkYXRhLW5hbWU9InBjaSBjYXJkIiB3aWR0aD0iMjEuNSIgaGVpZ2h0PSIxNy41Ij4mI3hhOyAgPHJlY3Qgcnk9IjEuMjUiIHJ4PSIxLjI1IiBoZWlnaHQ9IjYuNSIgd2lkdGg9IjYuNSIgeT0iOC4yNSIgeD0iMTMuMjUiIGZpbGw9IiM2QzhFQkYiLz4mI3hhOyAgPHBhdGggZD0iTTIxLDE3LjI1aC04Yy0uNDEsMC0uNzUuMzQtLjc1Ljc1djEuNWMwLC42OS41NiwxLjI1LDEuMjUsMS4yNWg3Yy42OSwwLDEuMjUtLjU2LDEuMjUtMS4yNXYtMS41YzAtLjQxLS4zNC0uNzUtLjc1LS43NVoiIGZpbGw9IiM2QzhFQkYiLz4mI3hhOyAgPHBhdGggZD0iTTEwLjUsOS43NWgtNGMtLjQxLDAtLjc1LS4zNC0uNzUtLjc1cy4zNC0uNzUuNzUtLjc1aDRjLjQxLDAsLjc1LjM0Ljc1Ljc1cy0uMzQuNzUtLjc1Ljc1WiIgZmlsbD0iIzZDOEVCRiIvPiYjeGE7ICA8cGF0aCBkPSJNMTAuNSwxMi4yNWgtNGMtLjQxLDAtLjc1LS4zNC0uNzUtLjc1cy4zNC0uNzUuNzUtLjc1aDRjLjQxLDAsLjc1LjM0Ljc1Ljc1cy0uMzQuNzUtLjc1Ljc1WiIgZmlsbD0iIzZDOEVCRiIvPiYjeGE7ICA8cGF0aCBkPSJNMTAuNSwxNC43NWgtNGMtLjQxLDAtLjc1LS4zNC0uNzUtLjc1cy4zNC0uNzUuNzUtLjc1aDRjLjQxLDAsLjc1LjM0Ljc1Ljc1cy0uMzQuNzUtLjc1Ljc1WiIgZmlsbD0iIzZDOEVCRiIvPiYjeGE7ICA8cGF0aCBkPSJNMjEsMTguNzVoLTljLS4yLDAtLjM5LS4wOC0uNTMtLjIybC0uNzgtLjc4aC0zLjM4bC0uNzguNzhjLS4xNC4xNC0uMzMuMjItLjUzLjIyaC0yLjVjLS40MSwwLS43NS0uMzQtLjc1LS43NVY2YzAtLjQxLjM0LS43NS43NS0uNzVoMTcuNWMuOTYsMCwxLjc1Ljc5LDEuNzUsMS43NXYxMGMwLC45Ni0uNzksMS43NS0xLjc1LDEuNzVaTTEyLjMxLDE3LjI1aDguNjljLjE0LDAsLjI1LS4xMS4yNS0uMjVWN2MwLS4xNC0uMTEtLjI1LS4yNS0uMjVINC4yNXYxMC41aDEuNDRsLjc4LS43OGMuMTQtLjE0LjMzLS4yMi41My0uMjJoNGMuMiwwLC4zOS4wOC41My4yMmwuNzguNzhaIiBmaWxsPSIjNkM4RUJGIi8+JiN4YTsgIDxwYXRoIGQ9Ik0zLjUsMjAuNzVjLS40MSwwLS43NS0uMzQtLjc1LS43NVY0Ljc1aC0uNzVjLS40MSwwLS43NS0uMzQtLjc1LS43NXMuMzQtLjc1Ljc1LS43NWgxYy42OSwwLDEuMjUuNTYsMS4yNSwxLjI1djE1LjVjMCwuNDEtLjM0Ljc1LS43NS43NVoiIGZpbGw9IiM2QzhFQkYiLz4mI3hhOzwvc3ZnPg==;fontSize=5;spacing=0;spacingTop=0;labelPosition=center;align=center;fontColor=default;fontStyle=1;textOpacity=40;" vertex="1" parent="GWrWn9XJocTz9Qf3CFix-17">
          <mxGeometry x="87.74666666666667" y="106.66666666666669" width="24.45" height="20" as="geometry" />
        </mxCell>
        <mxCell id="GWrWn9XJocTz9Qf3CFix-23" value="" style="rounded=0;whiteSpace=wrap;html=1;fillColor=none;strokeColor=light-dark(#5d92cb, #2a7ed3);dashed=1;fontStyle=2;fontColor=#7EA6E0;fontSize=8;verticalAlign=top;align=left;dashPattern=1 4;strokeWidth=1;spacing=0;spacingTop=-2;spacingLeft=2;" vertex="1" parent="1">
          <mxGeometry x="340" y="190" width="200" height="80" as="geometry" />
        </mxCell>
        <mxCell id="GWrWn9XJocTz9Qf3CFix-24" value="TF MODULE: ACR" style="shape=image;verticalLabelPosition=middle;labelBackgroundColor=default;verticalAlign=middle;aspect=fixed;imageAspect=0;editableCssRules=.*;image=data:image/svg+xml,PHN2ZyB4bWxucz0iaHR0cDovL3d3dy53My5vcmcvMjAwMC9zdmciIGZpbGw9Im5vbmUiIHZpZXdCb3g9IjAuMDAzMjIyNzIzMDI1ODI4NiAwLjAwNjczNTc1Njk5MzI5Mzc2MiAxNS40MDc1NDk4NTgwOTMyNjIgMTUuOTg3NzI3MTY1MjIyMTY4IiBoZWlnaHQ9Ijc5OS4zODYzNTgyNjExMDg0IiB3aWR0aD0iNzcwLjM3NzQ5MjkwNDY2MzEiPjxwYXRoIGZpbGwtcnVsZT0iZXZlbm9kZCIgZmlsbD0iIzdFQTZFMCIgc3Ryb2tlPSJub25lIiBkPSJNMS40MjkgMC4wNDQgQyAwLjgwMyAwLjE3OCwwLjMwOCAwLjYyMCwwLjA4OSAxLjI0MCBMIDAuMDEzIDEuNDUzIDAuMDA2IDMuMjAwIEMgLTAuMDAzIDUuMTY4LC0wLjAwMSA1LjIwMCwwLjE4NyA1LjU4NyBDIDAuMzA1IDUuODMxLDAuNDU4IDYuMDI1LDAuNjYyIDYuMTkxIEMgMC43MzkgNi4yNTUsMS42NTcgNi43ODIsMi43MDIgNy4zNjIgTCA0LjYwMCA4LjQxOCA0LjYxNSAxMC43MjIgQyA0LjYyOSAxMi43OTEsNC42MzUgMTMuMDQ0LDQuNjc2IDEzLjIwMCBDIDQuNzc4IDEzLjU4Miw1LjAxOSAxMy45NTUsNS4zMDcgMTQuMTc3IEMgNS40NTIgMTQuMjg4LDcuODkyIDE1LjY1OCw4LjI1NCAxNS44MzEgQyA4LjUxOCAxNS45NTcsOC43ODQgMTYuMDA5LDkuMDgwIDE1Ljk5MSBDIDkuNTM3IDE1Ljk2NSw5Ljk0NiAxNS43ODMsMTAuMjY1IDE1LjQ2NSBDIDEwLjQ3MyAxNS4yNTcsMTAuNjE1IDE1LjAyNSwxMC43MTQgMTQuNzMzIEwgMTAuNzg2IDE0LjUyMCAxMC43OTUgMTIuNzQ3IEwgMTAuODA0IDEwLjk3MyAxMi42ODYgOS44MjcgQyAxMy43MjEgOS4xOTYsMTQuNjM1IDguNjI5LDE0LjcxNyA4LjU2NiBDIDE0LjkxOSA4LjQxMiwxNS4xMDEgOC4xODksMTUuMjI2IDcuOTQxIEMgMTUuNDE1IDcuNTY2LDE1LjQxNyA3LjU0MywxNS40MDggNS43ODcgTCAxNS40MDAgNC4yMjcgMTUuMzI1IDQuMDE0IEMgMTUuMDg3IDMuMzQyLDE0LjUyOCAyLjg4OSwxMy44MjUgMi44MDAgQyAxMy41ODIgMi43NjksMTMuMjYzIDIuODA1LDEzLjAzMSAyLjg4OSBDIDEyLjk0MCAyLjkyMiwxMi4yMzQgMy4zMDAsMTEuNDYzIDMuNzI4IEMgMTAuNjkyIDQuMTU2LDEwLjA0OSA0LjUwNywxMC4wMzQgNC41MDcgQyAxMC4wMjAgNC41MDcsOC4zNzEgMy41NTIsNi4zNzAgMi4zODQgQyA0LjM3MCAxLjIxNywyLjY2NCAwLjIyNywyLjU4MCAwLjE4NCBDIDIuMjUxIDAuMDE2LDEuODA4IC0wLjAzNywxLjQyOSAwLjA0NCBNMy4yNDAgMi4zNDQgTCA0LjYwMCAzLjEzOSA0LjYwNyA0Ljg5MyBDIDQuNjEzIDYuNTI0LDQuNjExIDYuNjQ1LDQuNTY5IDYuNjI5IEMgNC40MzQgNi41NzcsMS42MzIgNS4wMDIsMS41OTMgNC45NTYgQyAxLjU1MCA0LjkwNSwxLjU0NyA0Ljc4NiwxLjU0NyAzLjMwMiBMIDEuNTQ3IDEuNzAzIDEuNjI1IDEuNjI1IEMgMS42ODAgMS41NjksMS43MjggMS41NDcsMS43OTEgMS41NDggQyAxLjg1OCAxLjU0OSwyLjIxMyAxLjc0NCwzLjI0MCAyLjM0NCBNNy43NjkgNC45ODYgTCA5LjI1MyA1Ljg1MyA5LjI1MyA3LjU0MCBDIDkuMjUzIDguNDY4LDkuMjQ5IDkuMjI3LDkuMjQ0IDkuMjI3IEMgOS4yMzkgOS4yMjcsOC41NDYgOC44NDQsNy43MDQgOC4zNzcgTCA2LjE3MyA3LjUyNyA2LjE2NiA1Ljc4OSBMIDYuMTYwIDQuMDUxIDYuMjIzIDQuMDg2IEMgNi4yNTcgNC4xMDUsNi45NTMgNC41MTAsNy43NjkgNC45ODYgTTEzLjczNCA0LjM2MCBDIDEzLjc3NyA0LjM4MiwxMy44MjQgNC40MjQsMTMuODM5IDQuNDUyIEMgMTMuODU3IDQuNDg1LDEzLjg2NyA0Ljk4NSwxMy44NjcgNS44NzUgQyAxMy44NjcgNy4xNDQsMTMuODYzIDcuMjUyLDEzLjgyMCA3LjMwMiBDIDEzLjc5NCA3LjMzMiwxMy4xNDkgNy43MzcsMTIuMzg3IDguMjAyIEMgMTEuNjI0IDguNjY3LDEwLjk1NSA5LjA3NiwxMC45MDAgOS4xMTEgTCAxMC44MDAgOS4xNzQgMTAuODAxIDcuNTE0IEwgMTAuODAyIDUuODUzIDEyLjAwNSA1LjE4NyBDIDEzLjc3NyA0LjIwNSwxMy41OTggNC4yOTAsMTMuNzM0IDQuMzYwIE03LjcyNiAxMC4xNTMgTCA5LjI1MiAxMS4wMDAgOS4yNTMgMTIuNjIxIEMgOS4yNTMgMTQuMDMzLDkuMjQ4IDE0LjI1Myw5LjIxMiAxNC4zMjIgQyA5LjE3MCAxNC40MDMsOS4wODIgMTQuNDUzLDguOTgxIDE0LjQ1MyBDIDguOTIxIDE0LjQ1Myw2LjM0OSAxMy4wMzYsNi4yNDEgMTIuOTQyIEwgNi4xNzMgMTIuODg1IDYuMTY2IDExLjA5NiBDIDYuMTYyIDEwLjExMiw2LjE2OCA5LjMwNyw2LjE3OSA5LjMwNyBDIDYuMTkwIDkuMzA3LDYuODg2IDkuNjg4LDcuNzI2IDEwLjE1MyIvPjwvc3ZnPg==;rounded=0;dashed=1;dashPattern=1 4;strokeColor=#7EA6E0;strokeWidth=1;align=left;spacingLeft=2;spacingTop=-2;spacing=0;fontFamily=Helvetica;fontSize=8;fontColor=#7EA6E0;fontStyle=2;fillColor=none;labelPosition=right;" vertex="1" parent="1">
          <mxGeometry x="341.23030303030305" y="190.78947368421052" width="7.515789473684211" height="7.795789473684211" as="geometry" />
        </mxCell>
        <mxCell id="GWrWn9XJocTz9Qf3CFix-42" value="" style="group" vertex="1" connectable="0" parent="1">
          <mxGeometry x="359.99666666666667" y="210" width="166.76" height="40" as="geometry" />
        </mxCell>
        <mxCell id="GWrWn9XJocTz9Qf3CFix-43" value="&lt;div style=&quot;padding-left: 0px; padding-right: 0px;&quot;&gt;&lt;b style=&quot;text-align: right;&quot;&gt;Container Registry&lt;/b&gt;&lt;/div&gt;&lt;div&gt;&lt;span style=&quot;text-align: right;&quot;&gt;acrdevweucp2&lt;/span&gt;&lt;/div&gt;" style="rounded=0;whiteSpace=wrap;html=1;verticalAlign=top;labelPosition=center;verticalLabelPosition=middle;align=left;fillColor=#dae8fc;strokeColor=#6c8ebf;spacingRight=4;spacingLeft=36;" vertex="1" parent="GWrWn9XJocTz9Qf3CFix-42">
          <mxGeometry width="166.76" height="40" as="geometry" />
        </mxCell>
        <mxCell id="GWrWn9XJocTz9Qf3CFix-45" value="" style="shape=image;verticalLabelPosition=bottom;labelBackgroundColor=default;verticalAlign=top;aspect=fixed;imageAspect=0;editableCssRules=.*;image=data:image/svg+xml,PHN2ZyB4bWxuczp4bGluaz0iaHR0cDovL3d3dy53My5vcmcvMTk5OS94bGluayIgeG1sbnM9Imh0dHA6Ly93d3cudzMub3JnLzIwMDAvc3ZnIiBzdHJva2UtbGluZWpvaW49InJvdW5kIiBzdHJva2UtbGluZWNhcD0icm91bmQiIHN0cm9rZT0iIzAwMCIgZmlsbC1ydWxlPSJldmVub2RkIiBmaWxsPSIjZmZmIiB2aWV3Qm94PSIwLjUgMC41IDkwIDgwLjAwMDk5OTQ1MDY4MzYiIHdpZHRoPSI5MCIgaGVpZ2h0PSI4MC4wMDA5OTk0NTA2ODM2Ij48dXNlIHk9Ii41IiB4PSIuNSIgeGxpbms6aHJlZj0iI0EiLz48c3ltYm9sIG92ZXJmbG93PSJ2aXNpYmxlIiBpZD0iQSI+PGcgc3Ryb2tlPSJub25lIiBmaWxsPSIjMDA3MmM2Ij48cGF0aCBkPSJNMzIgMjYuNjY3djIyLjU2NGwxNC02LjE1NFYxOC40NjJsLTE0IDguMjA1em0xMi0yLjQ3OHYyLjA1MSAxMy42MTVsLTMgMS4zOTN2LTEzLjM0bC00IDIuMjIydjEzLjAyMmwtMyAxLjI0NVYzMS43OTV2LTIuMDUxbDctMy44ODl2LS4wMThsMy0xLjY0N2gweiIvPjxwYXRoIGQ9Ik00NiAxOC40NjJ2MjQuNjE1bDQ0IDkuNzQ0VjM0Ljg3MmwtNDQtMTYuNDF6bTQwIDIwLjUxM3YxMC4yNTZsLTIuOTEtLjgyM1YzNy43NDJMNzggMzYuMTAzVjQ3LjE4bC0yLjkxLS44MjNWMzQuODdMNzAgMzMuMjMxdjExLjg5N2wtMi45MS0uODIzVjMxLjk5OEw2MiAzMC4zNTl2MTIuNzE4bC0yLjkxLS44MjNWMjkuMTI3bC01LjU5OC0xLjgzMi4wMSAxMy42MTRMNTAgNDAuMDAxVjI2LjA1MnYtMi4wNTFsOCAyLjg3MmgwbDQgMS40MzYgNCAxLjQzNiAyIC43MTggNy43MTQgMi43NjkgMi4yODYuODIgNCAxLjQzNiA0IDEuNDM2djIuMDUxek00NiA0Ny4xOHYzMi44MjFsNDQtMTAuMjU2VjU1Ljg5OEw0NiA0Ny4xOHptNDAgMjAuMzI2bC0yLjkwOC41MDF2LTguOTA1TDc4IDU4LjQxNXYxMC43NzFsLTIuOTA4LjVWNTguMDMxTDcwIDU3LjM0djEzLjUyMmwtMi45MDguNTAxVjU2Ljk1NEw2MiA1Ni4yNjd2MTYuMjc1bC0yLjkwOC41VjU1Ljg4NGwtNS41OTItLjY2My0uMDEgMTkuMjE4LTMuNDkuNjJ2LTIyLjcxbDM2IDUuNnY5LjU1N3pNMjggMjQuMjg1bDE3LjYyNi0xMC4zMyAzNC4yNDggMTIuNzc0Qzc4Ljg5MiAxNi4zNTMgNzAuMzcgOC4yMDUgNjAgOC4yMDVhMTkuMjkgMTkuMjkgMCAwIDAtNy4wMzggMS4zMjVDNDguNDI2IDMuNTMyIDQxLjQ1NiAwIDM0IDAgMjAuNzY2IDAgMTAgMTEuMDQyIDEwIDI0LjYxNWExNi41OSAxNi41OSAwIDAgMCAuMDE0LjcwOEMzLjgwNCAyOC45ODUgMCAzNS42NjggMCA0My4wNzcgMCA1NC4zODggOC45NzIgNjMuNTkgMjAgNjMuNTloOFYyNC4yODV6Ii8+PHBhdGggZD0iTTMyIDUyLjgyMXYxOC45NzRsMTQgOC4yMDVWNDcuMThsLTE0IDUuNjQxem0xMiAyLjIxM3YxOS44MzhsLTMtMS41MzhWNTYuMDQ4bC00IDEuMzV2MTMuODc5bC0zLTEuNTMyVjU4LjQxMXYtMi4wNTFsNy0yLjM2MyAzLTEuMDEzdjIuMDUxeiIvPjwvZz48L3N5bWJvbD48L3N2Zz4=;" vertex="1" parent="GWrWn9XJocTz9Qf3CFix-42">
          <mxGeometry x="10" y="10" width="22.5" height="20" as="geometry" />
        </mxCell>
        <mxCell id="GWrWn9XJocTz9Qf3CFix-60" style="edgeStyle=orthogonalEdgeStyle;rounded=1;orthogonalLoop=1;jettySize=auto;html=1;exitX=0;exitY=0.5;exitDx=0;exitDy=0;entryX=0.5;entryY=0;entryDx=0;entryDy=0;strokeColor=#7EA6E0;endArrow=none;endFill=1;curved=0;startFill=1;startArrow=blockThin;" edge="1" parent="1" source="GWrWn9XJocTz9Qf3CFix-43" target="GWrWn9XJocTz9Qf3CFix-50">
          <mxGeometry relative="1" as="geometry" />
        </mxCell>
        <mxCell id="GWrWn9XJocTz9Qf3CFix-71" value="" style="group" vertex="1" connectable="0" parent="1">
          <mxGeometry x="343.38" y="31" width="200" height="100" as="geometry" />
        </mxCell>
        <mxCell id="GWrWn9XJocTz9Qf3CFix-67" value="" style="rounded=0;whiteSpace=wrap;html=1;fillColor=#f5f5f5;strokeColor=#666666;fontColor=#333333;" vertex="1" parent="GWrWn9XJocTz9Qf3CFix-71">
          <mxGeometry width="200" height="100" as="geometry" />
        </mxCell>
        <mxCell id="GWrWn9XJocTz9Qf3CFix-68" value="" style="shape=image;verticalLabelPosition=bottom;labelBackgroundColor=default;verticalAlign=top;aspect=fixed;imageAspect=0;editableCssRules=.*;image=data:image/svg+xml,PHN2ZyB4bWxuczp4bGluaz0iaHR0cDovL3d3dy53My5vcmcvMTk5OS94bGluayIgeG1sbnM9Imh0dHA6Ly93d3cudzMub3JnLzIwMDAvc3ZnIiBzdHJva2UtbGluZWpvaW49InJvdW5kIiBzdHJva2UtbGluZWNhcD0icm91bmQiIHN0cm9rZT0iIzAwMCIgZmlsbC1ydWxlPSJldmVub2RkIiBmaWxsPSIjZmZmIiB2aWV3Qm94PSIwLjg3MTk5OTk3OTAxOTE2NSAwLjg3MTk5OTk3OTAxOTE2NSAxNDYuNTEyMDA4NjY2OTkyMiAxNDguMjYzNzMyOTEwMTU2MjUiIHdpZHRoPSIxNDYuNTEyMDA4NjY2OTkyMiIgaGVpZ2h0PSIxNDguMjYzNzMyOTEwMTU2MjUiPjx1c2UgeT0iLjg3MiIgeD0iLjg3MiIgeGxpbms6aHJlZj0iI0EiLz48c3ltYm9sIG92ZXJmbG93PSJ2aXNpYmxlIiBpZD0iQSI+PHBhdGggc3Ryb2tlPSJub25lIiBmaWxsPSIjMDAwIiBkPSJNNzMuMjU2IDBDMzIuODAxIDAgMCAzNC4wMjkgMCA3Ni4wMDFjMCAzMy41ODYgMjAuOTg4IDYyLjA2OSA1MC4xIDcyLjExNSAzLjY2My42OTggNC45OTktMS42NTIgNC45OTktMy42NTZsLS4xMDUtMTQuMTQ5Yy0yMC4zNzIgNC41OTMtMjQuNjc3LTguOTYxLTI0LjY3Ny04Ljk2MS0zLjMzNS04Ljc3Ny04LjEzMy0xMS4xMTQtOC4xMzMtMTEuMTE0LTYuNjU4LTQuNzEzLjUyMy00LjYyMi41MjMtNC42MjIgNy4zNTUuNTI5IDExLjIyNyA3LjgzMSAxMS4yMjcgNy44MzEgNi41MzcgMTEuNjE2IDE3LjE1MSA4LjI1NyAyMS4zMTkgNi4zMDkuNjY2LTQuOTAxIDIuNTY0LTguMjU3IDQuNjUtMTAuMTUxLTE2LjI2MS0xLjkxOS0zMy4zNjYtOC40NDItMzMuMzY2LTM3LjU2NSAwLTguMzAyIDIuODU3LTE1LjA3NSA3LjUzNS0yMC4zOTYtLjc0Ny0xLjkyOS0zLjI2OS05LjY2My43MjQtMjAuMTIzIDAgMCA2LjE0My0yLjA0MSAyMC4xNDUgNy43OTMgNS44NC0xLjY5MiAxMi4xMDUtMi41MjkgMTguMzE0LTIuNTU1IDYuMjIzLjAyOCAxMi40OTIuODcyIDE4LjM0IDIuNTY0IDEzLjk3OC05Ljg0NCAyMC4xMjgtNy43OTMgMjAuMTI4LTcuNzkzIDQuMDA2IDEwLjQ3IDEuNDgzIDE4LjE5Mi43MzMgMjAuMTE0IDQuNjk1IDUuMzIgNy41MyAxMi4wOTMgNy41MyAyMC4zOTYgMCAyOS4xOTgtMTcuMTMzIDM1LjYyNy0zMy40NTMgMzcuNTA5IDIuNjM5IDIuMzU1IDQuOTcxIDYuOTc3IDQuOTcxIDE0LjA2NWwtLjA5OCAyMC44NTVjMCAyLjAyMyAxLjMzMyA0LjM4OCA1LjA0NCAzLjY2MyAyOS4wOTEtMTAuMDc4IDUwLjA2Mi0zOC41NjEgNTAuMDYyLTcyLjEyOUMxNDYuNTEyIDM0LjAyOSAxMTMuNzEgMCA3My4yNTYgMHoiLz48L3N5bWJvbD48L3N2Zz4=;" vertex="1" parent="GWrWn9XJocTz9Qf3CFix-71">
          <mxGeometry x="1.6200000000000045" y="2" width="8.94" height="9" as="geometry" />
        </mxCell>
        <mxCell id="GWrWn9XJocTz9Qf3CFix-75" value="" style="group" vertex="1" connectable="0" parent="GWrWn9XJocTz9Qf3CFix-71">
          <mxGeometry x="65" y="19" width="70" height="24" as="geometry" />
        </mxCell>
        <mxCell id="GWrWn9XJocTz9Qf3CFix-73" value="" style="rounded=0;whiteSpace=wrap;html=1;fillColor=#dae8fc;strokeColor=none;" vertex="1" parent="GWrWn9XJocTz9Qf3CFix-75">
          <mxGeometry width="70" height="24" as="geometry" />
        </mxCell>
        <mxCell id="GWrWn9XJocTz9Qf3CFix-72" value="Repository:&#xa;Unir-cp2" style="shape=image;verticalLabelPosition=middle;labelBackgroundColor=none;verticalAlign=middle;aspect=fixed;imageAspect=0;editableCssRules=.*;image=data:image/svg+xml,PHN2ZyB4bWxuczp4bGluaz0iaHR0cDovL3d3dy53My5vcmcvMTk5OS94bGluayIgeG1sbnM9Imh0dHA6Ly93d3cudzMub3JnLzIwMDAvc3ZnIiBzdHJva2UtbGluZWpvaW49InJvdW5kIiBzdHJva2UtbGluZWNhcD0icm91bmQiIHN0cm9rZT0iIzAwMCIgZmlsbC1ydWxlPSJldmVub2RkIiBmaWxsPSIjZmZmIiB2aWV3Qm94PSIwLjQ5OTk5OTg4MDc5MDcxMDQ1IDAuNTAwNzQ5OTQ1NjQwNTY0IDc5Ljk5OTI0NDY4OTk0MTQgNzkuOTk5NDk2NDU5OTYwOTQiIHdpZHRoPSI3OS45OTkyNDQ2ODk5NDE0IiBoZWlnaHQ9Ijc5Ljk5OTQ5NjQ1OTk2MDk0Ij48dXNlIHk9Ii41IiB4PSIuNSIgeGxpbms6aHJlZj0iI0EiLz48c3ltYm9sIG92ZXJmbG93PSJ2aXNpYmxlIiBpZD0iQSI+PHBhdGggc3Ryb2tlPSJub25lIiBmaWxsPSIjMDA3OGQ3IiBkPSJNNzguNTQyIDM2LjY0Mkw0My41NjggMS40ODJjLTEuOTc2LTEuOTc1LTUuMTM3LTEuOTc1LTYuOTE1IDBsLTcuNzA2IDcuNTA2IDkuMDg5IDkuMDg2Yy41OTMtLjE5OCAxLjM4My0uMzk1IDIuMTczLS4zOTUgMy4zNTkgMCA2LjEyNSAyLjc2NSA2LjEyNSA2LjEyMyAwIC43OS0uMTk3IDEuNTgtLjM5NSAyLjE3M2w4Ljg5MSA4Ljg4OWMuNTkzLS4xOTggMS4zODMtLjM5NSAyLjE3NC0uMzk1YTYuMTYgNi4xNiAwIDAgMSA2LjEyNSA2LjEyMyA2LjE2IDYuMTYgMCAwIDEtNi4xMjUgNi4xMjQgNi4xNiA2LjE2IDAgMCAxLTYuMTI1LTYuMTI0YzAtLjc5LjE5OC0xLjU4LjM5NS0yLjE3M2wtOC4yOTktOC4yOTZ2MjEuNzI4YzEuOTc2Ljk4OCAzLjM1OSAzLjE2IDMuMzU5IDUuMzMzYTYuMTYgNi4xNiAwIDAgMS02LjEyNSA2LjEyNCA2LjE2IDYuMTYgMCAwIDEtNi4xMjUtNi4xMjRjMC0yLjU2OCAxLjU4MS00Ljc0MSAzLjk1Mi01LjcyOFYyOS4zMzNjLTIuMzcxLS43OS0zLjk1Mi0zLjE2LTMuOTUyLTUuNzI4IDAtLjc5LjE5OC0xLjU4LjM5NS0yLjE3M2wtOS4wODktOS4wODZMMS40ODIgMzYuNjQyYy0xLjk3NiAxLjk3NS0xLjk3NiA1LjEzNiAwIDYuOTE0bDM0Ljk3MyAzNC45NjNjMS45NzYgMS45NzUgNS4xMzcgMS45NzUgNi45MTYgMGwzNC45NzMtMzQuOTYzYzIuMTczLTEuOTc1IDIuMTczLTUuMTM2LjE5Ny02LjkxNHoiLz48L3N5bWJvbD48L3N2Zz4=;labelPosition=right;align=left;fontSize=8;fontStyle=0" vertex="1" parent="GWrWn9XJocTz9Qf3CFix-75">
          <mxGeometry x="3" y="2" width="20" height="20" as="geometry" />
        </mxCell>
        <mxCell id="GWrWn9XJocTz9Qf3CFix-70" style="edgeStyle=orthogonalEdgeStyle;rounded=1;orthogonalLoop=1;jettySize=auto;html=1;entryX=0.5;entryY=0;entryDx=0;entryDy=0;strokeColor=#7EA6E0;align=center;verticalAlign=middle;fontFamily=Helvetica;fontSize=7;fontColor=default;labelBackgroundColor=default;startArrow=none;startFill=0;endArrow=blockThin;endFill=1;curved=0;" edge="1" parent="1" source="GWrWn9XJocTz9Qf3CFix-69" target="GWrWn9XJocTz9Qf3CFix-43">
          <mxGeometry relative="1" as="geometry" />
        </mxCell>
        <mxCell id="GWrWn9XJocTz9Qf3CFix-79" value="&lt;font style=&quot;font-size: 8px;&quot;&gt;Image: mkdocs-nginx&lt;/font&gt;" style="edgeLabel;html=1;align=center;verticalAlign=middle;resizable=0;points=[];spacing=0;fontColor=light-dark(#7EA6E0,#EDEDED);" vertex="1" connectable="0" parent="GWrWn9XJocTz9Qf3CFix-70">
          <mxGeometry x="0.27" relative="1" as="geometry">
            <mxPoint y="-35" as="offset" />
          </mxGeometry>
        </mxCell>
        <mxCell id="GWrWn9XJocTz9Qf3CFix-69" value="GH Runner" style="shape=image;verticalLabelPosition=bottom;labelBackgroundColor=default;verticalAlign=top;aspect=fixed;imageAspect=0;editableCssRules=.*;image=data:image/svg+xml,PHN2ZyB4bWxucz0iaHR0cDovL3d3dy53My5vcmcvMjAwMC9zdmciIHZpZXdCb3g9IjEwLjAwMDk5Mjc3NDk2MzM3OSAxMC4wMDAzMTQ3MTI1MjQ0MTQgODAuMDIzMjIzODc2OTUzMTIgNzkuOTkxNzA2ODQ4MTQ0NTMiIHZlcnNpb249IjEuMSIgd2lkdGg9IjgwLjAyMzIyMzg3Njk1MzEyIiBoZWlnaHQ9Ijc5Ljk5MTcwNjg0ODE0NDUzIj4mI3hhOyA8cGF0aCBkPSJtOTAuMDEyIDcwLjY2di00MC44MzJjMC0wLjUxOTUzLTAuMTI4OTEtMS4wMzkxLTAuMzcxMDktMS41MTE3LTAuMzM5ODQtMC43MzA0Ny0wLjkyMTg4LTEuMzA4Ni0xLjY0ODQtMS42NDg0bC0zNi41Ny0xNi4zNTljLTAuNDQ5MjItMC4xOTkyMi0wLjkyOTY5LTAuMzA4NTktMS40MjE5LTAuMzA4NTktMC40ODgyOCAwLTAuOTY4NzUgMC4xMDE1Ni0xLjQyMTkgMC4zMDg1OWwtMzYuNTY2IDE2LjM2M2MtMC41ODk4NCAwLjMwMDc4LTEuMDg5OCAwLjc1LTEuNDQxNCAxLjMwMDgtMC4zNTE1NiAwLjU1ODU5LTAuNTUwNzggMS4xOTkyLTAuNTcwMzEgMS44NTE2djQwLjMyOGMwLjAzMTI1IDAuNjQ4NDQgMC4yMzgyOCAxLjI4OTEgMC41ODk4NCAxLjgzOTggMC4zNTE1NiAwLjU1MDc4IDAuODM5ODQgMSAxLjQyMTkgMS4zMDg2bDM2LjU3OCAxNi4zNzFjMC40NDE0MSAwLjIxMDk0IDAuOTI5NjkgMC4zMjAzMSAxLjQyMTkgMC4zMjAzMSAwLjQ4ODI4IDAgMC45Njg3NS0wLjEwOTM4IDEuNDIxOS0wLjMyMDMxbDM2LjU3OC0xNi4zNzFjMC41MzEyNS0wLjIzODI4IDAuOTg4MjgtMC42MDkzOCAxLjMzOTgtMS4wNzAzIDAuMzUxNTYtMC40NjA5NCAwLjU3ODEzLTEgMC42NzE4OC0xLjU3ODF6bS03My4xNi0zNS41NyAyOS43MTkgMTMuMzUydjMyLjgyOGwtMjkuNzE5LTEzLjMwOXptMzYuNTc4IDEzLjM1MiAyOS43MTktMTMuMzUydjMyLjg3MWwtMjkuNzE5IDEzLjMwOXptLTMuMzM5OC0zMS4yODEgMjguMjExIDEyLjY2LTI4LjIxMSAxMi42MjEtMjguMjExLTEyLjYyMXoiLz4mI3hhOzwvc3ZnPg==;fontSize=8;fontColor=#000000;spacing=0;fontStyle=0" vertex="1" parent="1">
          <mxGeometry x="433.38" y="90" width="20" height="20" as="geometry" />
        </mxCell>
        <mxCell id="GWrWn9XJocTz9Qf3CFix-76" style="edgeStyle=orthogonalEdgeStyle;rounded=1;orthogonalLoop=1;jettySize=auto;html=1;strokeColor=#7EA6E0;align=center;verticalAlign=middle;fontFamily=Helvetica;fontSize=11;fontColor=default;labelBackgroundColor=default;startArrow=none;startFill=0;endArrow=blockThin;endFill=1;curved=0;" edge="1" parent="1" source="GWrWn9XJocTz9Qf3CFix-73" target="GWrWn9XJocTz9Qf3CFix-69">
          <mxGeometry relative="1" as="geometry" />
        </mxCell>
      </root>
    </mxGraphModel>
  </diagram>
</mxfile>
